<svg xmlns="http://www.w3.org/2000/svg" version="1.1" xmlns:xlink="http://www.w3.org/1999/xlink" xmlns:svgjs="http://svgjs.com/svgjs" width="1920" height="1080" preserveAspectRatio="none" viewBox="0 0 1920 1080"><g mask="url(&quot;#SvgjsMask1044&quot;)" fill="none"><rect width="1920" height="1080" x="0" y="0" fill="rgba(255, 227, 201, 1)"></rect><path d="M-34.97 37.71 a311.66 311.66 0 1 0 623.32 0 a311.66 311.66 0 1 0 -623.32 0z" fill="rgba(255, 123, 0, 0.36)" class="triangle-float2"></path><path d="M1212.39 827.55 a188.65 188.65 0 1 0 377.3 0 a188.65 188.65 0 1 0 -377.3 0z" fill="rgba(255, 123, 0, 0.36)" class="triangle-float3"></path><path d="M1338.43 936.47 a264.28 264.28 0 1 0 528.56 0 a264.28 264.28 0 1 0 -528.56 0z" fill="rgba(255, 123, 0, 0.36)" class="triangle-float1"></path><path d="M1032.37 439.52 a262.87 262.87 0 1 0 525.74 0 a262.87 262.87 0 1 0 -525.74 0z" fill="rgba(255, 123, 0, 0.36)" class="triangle-float2"></path><path d="M16.16 762.74 a189.81 189.81 0 1 0 379.62 0 a189.81 189.81 0 1 0 -379.62 0z" fill="rgba(255, 123, 0, 0.36)" class="triangle-float3"></path><path d="M189.12 550.9 a345.33 345.33 0 1 0 690.66 0 a345.33 345.33 0 1 0 -690.66 0z" fill="rgba(255, 123, 0, 0.36)" class="triangle-float2"></path></g><defs><mask id="SvgjsMask1044"><rect width="1920" height="1080" fill="#ffffff"></rect></mask><style>
            @keyframes float1 {
                0%{transform: translate(0, 0)}
                50%{transform: translate(-10px, 0)}
                100%{transform: translate(0, 0)}
            }

            .triangle-float1 {
                animation: float1 5s infinite;
            }

            @keyframes float2 {
                0%{transform: translate(0, 0)}
                50%{transform: translate(-5px, -5px)}
                100%{transform: translate(0, 0)}
            }

            .triangle-float2 {
                animation: float2 4s infinite;
            }

            @keyframes float3 {
                0%{transform: translate(0, 0)}
                50%{transform: translate(0, -10px)}
                100%{transform: translate(0, 0)}
            }

            .triangle-float3 {
                animation: float3 6s infinite;
            }
        </style></defs></svg>