<svg xmlns="http://www.w3.org/2000/svg" version="1.1" xmlns:xlink="http://www.w3.org/1999/xlink" xmlns:svgjs="http://svgjs.com/svgjs" width="767" height="1920" preserveAspectRatio="none" viewBox="0 0 767 1920"><g mask="url(&quot;#SvgjsMask1055&quot;)" fill="none"><rect width="767" height="1920" x="0" y="0" fill="rgba(255, 227, 201, 1)"></rect><path d="M475.27 743.21 a219.96 219.96 0 1 0 439.92 0 a219.96 219.96 0 1 0 -439.92 0z" fill="rgba(255, 123, 0, 0.36)" class="triangle-float1"></path><path d="M423.3 257.3 a206.06 206.06 0 1 0 412.12 0 a206.06 206.06 0 1 0 -412.12 0z" fill="rgba(255, 123, 0, 0.36)" class="triangle-float1"></path><path d="M71.42 461.04 a187.93 187.93 0 1 0 375.86 0 a187.93 187.93 0 1 0 -375.86 0z" fill="rgba(255, 123, 0, 0.36)" class="triangle-float3"></path><path d="M380.09 1408.67 a236.57 236.57 0 1 0 473.14 0 a236.57 236.57 0 1 0 -473.14 0z" fill="rgba(255, 123, 0, 0.36)" class="triangle-float1"></path><path d="M-158.46 1621.52 a235.9 235.9 0 1 0 471.8 0 a235.9 235.9 0 1 0 -471.8 0z" fill="rgba(255, 123, 0, 0.36)" class="triangle-float3"></path><path d="M-52.38 87.13 a228.86 228.86 0 1 0 457.72 0 a228.86 228.86 0 1 0 -457.72 0z" fill="rgba(255, 123, 0, 0.36)" class="triangle-float2"></path></g><defs><mask id="SvgjsMask1055"><rect width="767" height="1920" fill="#ffffff"></rect></mask><style>
            @keyframes float1 {
                0%{transform: translate(0, 0)}
                50%{transform: translate(-10px, 0)}
                100%{transform: translate(0, 0)}
            }

            .triangle-float1 {
                animation: float1 5s infinite;
            }

            @keyframes float2 {
                0%{transform: translate(0, 0)}
                50%{transform: translate(-5px, -5px)}
                100%{transform: translate(0, 0)}
            }

            .triangle-float2 {
                animation: float2 4s infinite;
            }

            @keyframes float3 {
                0%{transform: translate(0, 0)}
                50%{transform: translate(0, -10px)}
                100%{transform: translate(0, 0)}
            }

            .triangle-float3 {
                animation: float3 6s infinite;
            }
        </style></defs></svg>